<?xml version="1.0" encoding="utf-8"?>
<!-- Generator: Adobe Illustrator 17.1.0, SVG Export Plug-In . SVG Version: 6.00 Build 0)  -->
<!DOCTYPE svg PUBLIC "-//W3C//DTD SVG 1.1//EN" "http://www.w3.org/Graphics/SVG/1.1/DTD/svg11.dtd">
<svg version="1.1" id="Ebene_1" xmlns:sketch="http://www.bohemiancoding.com/sketch/ns"
	 xmlns="http://www.w3.org/2000/svg" xmlns:xlink="http://www.w3.org/1999/xlink" x="0px" y="0px" width="1140px" height="525px"
	 viewBox="0 0 1140 525" enable-background="new 0 0 1140 525" xml:space="preserve">
<title>Group</title>
<desc>Created with Sketch.</desc>
<g id="Page-1" sketch:type="MSPage">
	<g id="Group" sketch:type="MSLayerGroup">
		<g id="Click" transform="translate(0.000000, 1.000000)">
			<path id="Line" sketch:type="MSShapeGroup" fill="none" stroke="#000000" stroke-width="2" stroke-linecap="square" d="
				M119,178.5v-99"/>
			<path id="Line-decoration-1" fill="none" stroke="#000000" stroke-width="2" stroke-linecap="square" d="M122,167.7l-3,10.8
				l-3-10.8"/>
			<rect id="Rectangle-1" sketch:type="MSShapeGroup" fill="#14ADAA" width="238" height="82">
			</rect>
			<text transform="matrix(1 0 0 1 32.0059 48)" fill="#FFFFFF" font-family="'Roboto-Regular'" font-size="24">Click reports link</text>
		</g>
		<g id="Loaded_x3F_" transform="translate(39.000000, 183.000000)">
			<path id="Line_1_" sketch:type="MSShapeGroup" fill="none" stroke="#000000" stroke-width="2" stroke-linecap="square" d="
				M80,160.5v97.3"/>
			<path id="Line-decoration-1_1_" fill="none" stroke="#000000" stroke-width="2" stroke-linecap="square" d="M77,247l3,10.8
				l3-10.8"/>
			<text transform="matrix(1 0 0 1 92.2988 214)" font-family="'Roboto-Regular'" font-size="24">Yes</text>
			<path id="Line_2_" sketch:type="MSShapeGroup" fill="none" stroke="#000000" stroke-width="2" stroke-linecap="square" d="
				M159.5,80h99.4"/>
			<path id="Line-decoration-1_2_" fill="none" stroke="#000000" stroke-width="2" stroke-linecap="square" d="M248.1,83l10.8-3
				l-10.8-3"/>
			
				<rect id="Rectangle-2" x="23.4" y="23.4" sketch:type="MSShapeGroup" transform="matrix(-0.7071 -0.7071 0.7071 -0.7071 79.9031 192.9031)" fill="#14ADAA" width="113" height="113">
			</rect>
			<text transform="matrix(1 0 0 1 52.1855 68)" fill="#FFFFFF" font-family="'Roboto-Regular'" font-size="24">State </text>
			<text transform="matrix(1 0 0 1 39.1543 100)" fill="#FFFFFF" font-family="'Roboto-Regular'" font-size="24">loaded?</text>
			<text transform="matrix(1 0 0 1 188.3008 68)" font-family="'Roboto-Regular'" font-size="24">No</text>
			<path id="Line_3_" sketch:type="MSShapeGroup" fill="none" stroke="#000000" stroke-width="2" stroke-linecap="square" d="
				M498.5,80h99.4"/>
			<path id="Line-decoration-1_3_" fill="none" stroke="#000000" stroke-width="2" stroke-linecap="square" d="M587.1,83l10.8-3
				l-10.8-3"/>
		</g>
		<g id="Show-Reports" transform="translate(0.000000, 443.000000)">
			<rect id="Rectangle-1_1_" sketch:type="MSShapeGroup" fill="#14ADAA" width="238" height="82">
			</rect>
			<text transform="matrix(1 0 0 1 48.5469 48)" fill="#FFFFFF" font-family="'Roboto-Regular'" font-size="24">Show reports</text>
		</g>
		<g id="Load-Reports" transform="translate(902.000000, 222.000000)">
			<rect id="Rectangle-1_2_" sketch:type="MSShapeGroup" fill="#14ADAA" width="238" height="82">
			</rect>
			<text transform="matrix(1 0 0 1 22.4375 48)" fill="#FFFFFF" font-family="'Roboto-Regular'" font-size="24">Load reports state</text>
		</g>
		<g id="Look-up" transform="translate(298.000000, 221.000000)">
			<rect id="Rectangle-1_3_" sketch:type="MSShapeGroup" fill="#14ADAA" width="238" height="82">
			</rect>
			<text transform="matrix(1 0 0 1 21.5059 48)" fill="#FFFFFF" font-family="'Roboto-Regular'" font-size="24">Look up in Futures</text>
		</g>
		<path id="Line_4_" sketch:type="MSShapeGroup" fill="none" stroke="#000000" stroke-width="2" stroke-linecap="square" d="
			M1020.5,304.2v180.3H241.2"/>
		<path id="Line-decoration-1_4_" fill="none" stroke="#000000" stroke-width="2" stroke-linecap="square" d="M251.8,481.5l-10.8,3
			l10.8,3"/>
		<g id="Found_x3F_" transform="translate(639.000000, 85.000000)">
			<text transform="matrix(1 0 0 1 101.3008 73)" font-family="'Roboto-Regular'" font-size="24">No</text>
			<path id="Line_5_" sketch:type="MSShapeGroup" fill="none" stroke="#000000" stroke-width="2" stroke-linecap="square" d="
				M80,99.5v-99"/>
			<path id="Line-decoration-1_5_" fill="none" stroke="#000000" stroke-width="2" stroke-linecap="square" d="M83,11.3L80,0.5
				l-3,10.8"/>
			<path id="Line_6_" sketch:type="MSShapeGroup" fill="none" stroke="#000000" stroke-width="2" stroke-linecap="square" d="
				M159.5,178h99.4"/>
			<path id="Line-decoration-1_6_" fill="none" stroke="#000000" stroke-width="2" stroke-linecap="square" d="M248.1,181l10.8-3
				l-10.8-3"/>
			
				<rect id="Rectangle-2_1_" x="23.4" y="121.4" sketch:type="MSShapeGroup" transform="matrix(-0.7071 -0.7071 0.7071 -0.7071 10.6066 360.1996)" fill="#14ADAA" width="113" height="113">
			</rect>
			<text transform="matrix(1 0 0 1 52.1855 166)" fill="#FFFFFF" font-family="'Roboto-Regular'" font-size="24">State </text>
			<text transform="matrix(1 0 0 1 43.8887 198)" fill="#FFFFFF" font-family="'Roboto-Regular'" font-size="24">found?</text>
			<text transform="matrix(1 0 0 1 184.2988 166)" font-family="'Roboto-Regular'" font-size="24">Yes</text>
		</g>
		<g id="Error" transform="translate(600.000000, 0.000000)">
			<rect id="Rectangle-1_4_" sketch:type="MSShapeGroup" fill="#14ADAA" width="238" height="82">
			</rect>
			<text transform="matrix(1 0 0 1 57.5703 52)" fill="#FFFFFF" font-family="'Roboto-Regular'" font-size="24">Throw error</text>
		</g>
	</g>
</g>
</svg>
