<?xml version="1.0" encoding="UTF-8" standalone="no"?>
<svg width="2067px" height="815px" viewBox="0 0 2067 815" version="1.1" xmlns="http://www.w3.org/2000/svg" xmlns:xlink="http://www.w3.org/1999/xlink">
    <!-- Generator: Sketch 3.6.1 (26313) - http://www.bohemiancoding.com/sketch -->
    <title>Group 2</title>
    <desc>Created with Sketch.</desc>
    <defs>
        <path id="path-1" d="M231.575875,72.6625899 L231.575875,72.3205036 L239.100389,34.4629496 C239.100389,34.4629496 222.341245,-4.19280576 166.021401,0.482374101 C109.815564,5.15755396 102.747082,18.1568345 93.5124514,33.6647482 L98.9848249,58.4089928 L88.4961089,65.1366906 C88.4961089,65.1366906 84.7338521,53.8478417 78.8054475,53.3917266 C78.8054475,53.3917266 87.5840467,40.7345324 81.3136187,31.9543165 C75.0431907,23.1741007 41.4108949,23.9723022 28.4140078,68.4435252 C28.4140078,68.4435252 26.7038911,54.9881295 21.2315175,54.9881295 C15.759144,54.9881295 -4.42023346,62.2859712 1.05214008,83.2672662 C6.52451362,104.248561 25.4498054,110.520144 31.7202335,113.142806 C31.7202335,113.142806 34.6844358,116.905755 33.4303502,121.923022 C32.7463035,124.545683 17.5832685,171.639568 30.2381323,215.198561 C39.7007782,247.696763 70.140856,275.975899 70.140856,275.975899 C93.3984436,298.097482 124.636576,311.666906 159.066926,311.666906 C230.549805,311.666906 288.579767,253.170144 288.579767,180.989928 C288.693774,135.948561 266.006226,96.152518 231.575875,72.6625899 L231.575875,72.6625899 L231.575875,72.6625899 Z"></path>
        <linearGradient x1="68.1884411%" y1="17.4868311%" x2="27.8226935%" y2="89.7551419%" id="linearGradient-3">
            <stop stop-color="#41873F" offset="0%"></stop>
            <stop stop-color="#418B3D" offset="32.88%"></stop>
            <stop stop-color="#419637" offset="63.52%"></stop>
            <stop stop-color="#3FA92D" offset="93.19%"></stop>
            <stop stop-color="#3FAE2A" offset="100%"></stop>
        </linearGradient>
        <linearGradient x1="68.1884411%" y1="24.9579518%" x2="27.8226935%" y2="80.6199061%" id="linearGradient-4">
            <stop stop-color="#41873F" offset="0%"></stop>
            <stop stop-color="#418B3D" offset="32.88%"></stop>
            <stop stop-color="#419637" offset="63.52%"></stop>
            <stop stop-color="#3FA92D" offset="93.19%"></stop>
            <stop stop-color="#3FAE2A" offset="100%"></stop>
        </linearGradient>
        <path id="path-5" d="M57.903386,0.84920993 C56.0541761,-0.190970655 53.8582393,-0.190970655 52.0090293,0.84920993 L3.351693,28.9340858 C1.50248307,29.9742664 0.462302483,31.9390519 0.462302483,34.0194131 L0.462302483,90.3047404 C0.462302483,92.3851016 1.61805869,94.3498871 3.351693,95.3900677 L52.0090293,123.474944 C53.8582393,124.515124 56.0541761,124.515124 57.903386,123.474944 L106.560722,95.3900677 C108.409932,94.3498871 109.450113,92.3851016 109.450113,90.3047404 L109.450113,34.0194131 C109.450113,31.9390519 108.294357,29.9742664 106.560722,28.9340858 L57.903386,0.84920993 L57.903386,0.84920993 L57.903386,0.84920993 Z"></path>
        <linearGradient x1="43.2765472%" y1="53.8007318%" x2="159.245277%" y2="-0.227221469%" id="linearGradient-7">
            <stop stop-color="#41873F" offset="13.76%"></stop>
            <stop stop-color="#54A044" offset="40.32%"></stop>
            <stop stop-color="#66B848" offset="71.36%"></stop>
            <stop stop-color="#6CC04A" offset="90.81%"></stop>
        </linearGradient>
        <path id="path-8" d="M57.903386,0.84920993 C56.0541761,-0.190970655 53.8582393,-0.190970655 52.0090293,0.84920993 L3.351693,28.9340858 C1.50248307,29.9742664 0.462302483,31.9390519 0.462302483,34.0194131 L0.462302483,90.3047404 C0.462302483,92.3851016 1.61805869,94.3498871 3.351693,95.3900677 L52.0090293,123.474944 C53.8582393,124.515124 56.0541761,124.515124 57.903386,123.474944 L106.560722,95.3900677 C108.409932,94.3498871 109.450113,92.3851016 109.450113,90.3047404 L109.450113,34.0194131 C109.450113,31.9390519 108.294357,29.9742664 106.560722,28.9340858 L57.903386,0.84920993 L57.903386,0.84920993 L57.903386,0.84920993 Z"></path>
        <linearGradient x1="-4413.77%" y1="13.43%" x2="5327.93%" y2="13.43%" id="linearGradient-10">
            <stop stop-color="#6CC04A" offset="9.191646%"></stop>
            <stop stop-color="#66B848" offset="28.64%"></stop>
            <stop stop-color="#54A044" offset="59.68%"></stop>
            <stop stop-color="#41873F" offset="86.24%"></stop>
        </linearGradient>
        <linearGradient x1="-4.38880435%" y1="49.9972065%" x2="101.499239%" y2="49.9972065%" id="linearGradient-11">
            <stop stop-color="#6CC04A" offset="9.191646%"></stop>
            <stop stop-color="#66B848" offset="28.64%"></stop>
            <stop stop-color="#54A044" offset="59.68%"></stop>
            <stop stop-color="#41873F" offset="86.24%"></stop>
        </linearGradient>
        <linearGradient x1="-9713.77%" y1="36.21%" x2="27.93%" y2="36.21%" id="linearGradient-12">
            <stop stop-color="#6CC04A" offset="9.191646%"></stop>
            <stop stop-color="#66B848" offset="28.64%"></stop>
            <stop stop-color="#54A044" offset="59.68%"></stop>
            <stop stop-color="#41873F" offset="86.24%"></stop>
        </linearGradient>
        <linearGradient x1="-103.860714%" y1="50.2754209%" x2="100.796849%" y2="50.2754209%" id="linearGradient-13">
            <stop stop-color="#6CC04A" offset="9.191646%"></stop>
            <stop stop-color="#66B848" offset="28.64%"></stop>
            <stop stop-color="#54A044" offset="59.68%"></stop>
            <stop stop-color="#41873F" offset="86.24%"></stop>
        </linearGradient>
        <linearGradient x1="81.3837046%" y1="-211.06936%" x2="32.2447066%" y2="201.605387%" id="linearGradient-14">
            <stop stop-color="#41873F" offset="0%"></stop>
            <stop stop-color="#418B3D" offset="32.88%"></stop>
            <stop stop-color="#419637" offset="63.52%"></stop>
            <stop stop-color="#3FA92D" offset="93.19%"></stop>
            <stop stop-color="#3FAE2A" offset="100%"></stop>
        </linearGradient>
    </defs>
    <g id="Page-1" stroke="none" stroke-width="1" fill="none" fill-rule="evenodd">
        <g id="Group-2" transform="translate(0.000000, -3.000000)">
            <g id="angular-icon" transform="translate(357.000000, 43.000000)">
                <g id="Group">
                    <path d="M0.0996108949,45.522179 L125.908171,0.697276265 L255.103502,44.7252918 L234.185214,211.175097 L125.908171,271.140856 L19.3245136,211.971984 L0.0996108949,45.522179 L0.0996108949,45.522179 Z" id="Shape" fill="#E23237"></path>
                    <path d="M255.103502,44.7252918 L125.908171,0.697276265 L125.908171,271.140856 L234.185214,211.274708 L255.103502,44.7252918 L255.103502,44.7252918 L255.103502,44.7252918 Z" id="Shape" fill="#B52E31"></path>
                    <path d="M126.107393,32.27393 L126.107393,32.27393 L47.7136187,206.692607 L76.9992218,206.194553 L92.7377432,166.848249 L126.207004,166.848249 L126.306615,166.848249 L163.063035,166.848249 L180.29572,206.692607 L208.286381,207.190661 L126.107393,32.27393 L126.107393,32.27393 L126.107393,32.27393 Z M126.306615,88.155642 L152.803113,143.5393 L127.402335,143.5393 L126.107393,143.5393 L102.997665,143.5393 L126.306615,88.155642 L126.306615,88.155642 L126.306615,88.155642 Z" id="Shape" fill="#FFFFFF"></path>
                </g>
            </g>
            <g id="sass" transform="translate(0.000000, 84.000000)" fill="#CD6799">
                <g id="Group">
                    <path d="M220.281239,110.513661 C211.374863,110.560291 203.634244,112.705282 197.152641,115.876138 C194.774499,111.166485 192.396357,106.969763 191.976685,103.892168 C191.510383,100.301639 190.95082,98.1100182 191.510383,93.8200364 C192.069945,89.5300546 194.587978,83.4214936 194.541348,82.9551913 C194.494718,82.4888889 193.981785,80.2972678 188.852459,80.2506375 C183.723133,80.2040073 179.29326,81.2298725 178.780328,82.5821494 C178.267395,83.9344262 177.28816,87.0120219 176.635337,90.182878 C175.749362,94.8459016 166.376685,111.492896 161.014208,120.21275 C159.288889,116.808743 157.796721,113.824408 157.47031,111.446266 C157.004007,107.855738 156.444444,105.664117 157.004007,101.374135 C157.56357,97.084153 160.081603,90.975592 160.034973,90.5092896 C159.988342,90.0429872 159.47541,87.8513661 154.346084,87.8047359 C149.216758,87.7581056 144.786885,88.7839709 144.273953,90.1362477 C143.76102,91.4885246 143.201457,94.6593807 142.128962,97.7369763 C141.056466,100.814572 128.606193,128.606193 125.342077,135.78725 C123.663388,139.471038 122.217851,142.408743 121.191985,144.413843 L121.191985,144.413843 C121.191985,144.413843 121.145355,144.553734 121.005464,144.786885 C120.11949,146.512204 119.606557,147.444809 119.606557,147.444809 C119.606557,147.444809 119.606557,147.444809 119.606557,147.491439 C118.907104,148.750455 118.16102,149.916211 117.787978,149.916211 C117.508197,149.916211 116.995264,146.558834 117.881239,141.989071 C119.746448,132.336612 124.176321,117.321676 124.12969,116.808743 C124.12969,116.528962 124.969035,113.917668 121.238616,112.565392 C117.601457,111.213115 116.295811,113.451366 115.969399,113.451366 C115.642987,113.451366 115.409836,114.24408 115.409836,114.24408 C115.409836,114.24408 119.466667,97.3639344 107.669217,97.3639344 C100.301639,97.3639344 90.1362477,105.430965 85.1001821,112.705282 C81.929326,114.430601 75.1679417,118.11439 67.940255,122.07796 C65.189071,123.616758 62.3446266,125.155556 59.6867031,126.601093 C59.5001821,126.414572 59.3136612,126.181421 59.1271403,125.9949 C44.8582878,110.746812 18.4655738,99.9752277 19.5846995,79.5045537 C20.0043716,72.0437158 22.5690346,52.4590164 70.2717668,28.6775956 C109.534426,9.32604736 140.776685,14.6885246 146.185792,26.579235 C153.926412,43.5526412 129.445537,75.0746812 88.8772313,79.6444444 C73.3959927,81.3697632 65.2823315,75.4010929 63.2306011,73.1628415 C61.0856102,70.8313297 60.7591985,70.691439 59.9664845,71.1577413 C58.6608379,71.8571949 59.5001821,73.9555556 59.9664845,75.1679417 C61.1788707,78.3387978 66.168306,83.9344262 74.6083789,86.6856102 C82.0692168,89.1103825 100.208379,90.4626594 122.17122,81.9759563 C146.745355,72.463388 165.957013,46.0240437 160.314754,23.8746812 C154.672495,1.3989071 117.368306,-6.01530055 82.0692168,6.52823315 C61.0856102,13.989071 38.3300546,25.7398907 21.9628415,41.0346084 C2.51803279,59.2204007 -0.559562842,75.028051 0.699453552,81.6495446 C5.22258652,105.151184 37.6306011,120.445902 50.5938069,131.777049 C49.9409836,132.150091 49.3347905,132.476503 48.8218579,132.756284 C42.340255,135.97377 17.6262295,148.890346 11.4710383,162.553005 C4.47650273,178.034244 12.5901639,189.13224 17.9526412,190.624408 C34.5996357,195.240801 51.7129326,186.940619 60.8990893,173.23133 C70.0852459,159.52204 68.9661202,141.70929 64.7227687,133.548998 C64.6761384,133.455738 64.6295082,133.362477 64.5362477,133.269217 C66.2149362,132.289982 67.940255,131.264117 69.6189435,130.284882 C72.9296903,128.326412 76.1938069,126.507832 78.9916211,125.015665 C77.4061931,129.352277 76.2404372,134.528233 75.6808743,141.989071 C74.9814208,150.755556 78.571949,162.133333 83.2816029,166.609836 C85.3799636,168.568306 87.8513661,168.614936 89.4367942,168.614936 C94.9391621,168.614936 97.4105647,164.045173 100.161749,158.636066 C103.519126,152.014572 106.550091,144.320583 106.550091,144.320583 C106.550091,144.320583 102.773042,165.117668 113.031694,165.117668 C116.762113,165.117668 120.539162,160.268124 122.217851,157.796721 L122.217851,157.843352 C122.217851,157.843352 122.311111,157.703461 122.497632,157.377049 C122.870674,156.770856 123.103825,156.397814 123.103825,156.397814 L123.103825,156.304554 C124.595993,153.69326 127.95337,147.77122 132.942805,137.93224 C139.377778,125.248816 145.579599,109.394536 145.579599,109.394536 C145.579599,109.394536 146.139162,113.264845 148.051002,119.699818 C149.170128,123.476867 151.501639,127.626958 153.366849,131.637158 C151.874681,133.735519 150.942077,134.901275 150.942077,134.901275 C150.942077,134.901275 150.942077,134.901275 150.988707,134.947905 C149.776321,136.533333 148.470674,138.258652 147.025137,139.937341 C141.942441,145.999271 135.88051,152.947177 135.041166,154.952277 C134.061931,157.330419 134.295082,159.055738 136.160291,160.454645 C137.512568,161.48051 139.937341,161.620401 142.408743,161.48051 C146.978506,161.154098 150.195993,160.034973 151.781421,159.335519 C154.252823,158.449545 157.143898,157.097268 159.848452,155.092168 C164.837887,151.408379 167.868852,146.139162 167.589071,139.191257 C167.44918,135.367577 166.190164,131.543898 164.651366,127.95337 C165.117668,127.300546 165.537341,126.647723 166.003643,125.9949 C173.884153,114.477231 179.992714,101.840437 179.992714,101.840437 C179.992714,101.840437 180.552277,105.710747 182.464117,112.145719 C183.396721,115.409836 185.308561,118.953734 186.98725,122.404372 C179.573042,128.419672 175.003279,135.414208 173.37122,139.983971 C170.433515,148.470674 172.718397,152.294353 177.055009,153.180328 C179.013479,153.6 181.811293,152.667395 183.863024,151.781421 C186.474317,150.942077 189.551913,149.496539 192.489617,147.351548 C197.479053,143.66776 202.281967,138.538434 202.002186,131.590528 C201.862295,128.419672 201.022951,125.295446 199.857195,122.264481 C206.152277,119.653188 214.265938,118.20765 224.617851,119.420036 C246.813843,122.03133 251.197086,135.88051 250.357741,141.70929 C249.518397,147.538069 244.855373,150.708925 243.316576,151.68816 C241.777778,152.667395 241.264845,152.993807 241.404736,153.69326 C241.591257,154.719126 242.337341,154.672495 243.642987,154.485974 C245.461566,154.159563 255.300546,149.776321 255.720219,139.051366 C256.419672,125.342077 243.363206,110.37377 220.281239,110.513661 L220.281239,110.513661 L220.281239,110.513661 Z M49.0550091,168.241894 C41.6874317,176.262295 31.4287796,179.29326 26.9989071,176.728597 C22.242623,173.977413 24.1078324,162.133333 33.1540984,153.64663 C38.6564663,148.470674 45.7442623,143.66776 50.4539162,140.730055 C51.5264117,140.077231 53.1118397,139.144627 55.0236794,137.978871 C55.3500911,137.79235 55.536612,137.699089 55.536612,137.699089 L55.536612,137.699089 C55.9096539,137.465938 56.2826958,137.232787 56.6557377,136.999636 C59.9664845,149.123497 56.7956284,159.801821 49.0550091,168.241894 L49.0550091,168.241894 L49.0550091,168.241894 Z M102.679781,131.777049 C100.115118,138.025501 94.7526412,154.019672 91.4885246,153.133698 C88.6907104,152.387614 86.9653916,140.263752 90.9289617,128.279781 C92.9340619,122.264481 97.1774135,115.083424 99.648816,112.28561 C103.659016,107.809107 108.088889,106.31694 109.161384,108.135519 C110.513661,110.513661 104.265209,127.860109 102.679781,131.777049 L102.679781,131.777049 L102.679781,131.777049 Z M146.931876,152.947177 C145.859381,153.50674 144.833515,153.879781 144.367213,153.6 C144.040801,153.413479 144.833515,152.667395 144.833515,152.667395 C144.833515,152.667395 150.382514,146.698725 152.574135,143.994171 C153.833151,142.408743 155.325319,140.543534 156.910747,138.445173 L156.910747,139.051366 C156.910747,146.185792 150.009472,150.988707 146.931876,152.947177 L146.931876,152.947177 L146.931876,152.947177 Z M181.065209,145.159927 C180.272495,144.600364 180.412386,142.735155 183.07031,136.906375 C184.096175,134.621494 186.520947,130.797814 190.671038,127.114026 C191.137341,128.606193 191.463752,130.05173 191.417122,131.404007 C191.370492,140.403643 184.935519,143.76102 181.065209,145.159927 L181.065209,145.159927 L181.065209,145.159927 Z" id="Shape"></path>
                </g>
            </g>
            <g id="yeoman" transform="translate(788.000000, 0.000000)">
                <g id="Group">
                    <path d="M159.066926,315.08777 C85.7599222,315.08777 26.1338521,254.994604 26.1338521,180.989928 C26.1338521,107.099281 85.7599222,46.8920863 159.066926,46.8920863 C232.37393,46.8920863 292,107.099281 292,180.989928 C292,254.994604 232.37393,315.08777 159.066926,315.08777 L159.066926,315.08777 L159.066926,315.08777 Z M159.066926,53.6197842 C89.522179,53.6197842 32.8603113,110.748201 32.8603113,180.989928 C32.8603113,251.231655 89.522179,308.360072 159.066926,308.360072 C228.611673,308.360072 285.273541,251.231655 285.273541,180.989928 C285.273541,110.748201 228.725681,53.6197842 159.066926,53.6197842 L159.066926,53.6197842 L159.066926,53.6197842 Z" id="Shape" fill="#020202"></path>
                    <g id="Clipped">
                        <mask id="mask-2" fill="white">
                            <use xlink:href="#path-1"></use>
                        </mask>
                        <g id="SVGID_1"></g>
                        <g id="Group" mask="url(#mask-2)">
                            <g transform="translate(5.840467, 3.561151)">
                                <path d="M303.488716,371.961871 C303.488716,371.961871 305.654864,401.267266 297.674319,407.196763 C297.674319,407.196763 295.964202,418.941727 284.677432,419.283813 C284.677432,419.283813 282.169261,426.011511 270.426459,422.590647 C258.683658,419.283813 248.650973,384.847122 248.650973,384.847122 C248.650973,384.847122 284.107393,354.743525 303.488716,371.961871 L303.488716,371.961871 L303.488716,371.961871 Z" id="Shape" fill="#F4CF8C"></path>
                                <path d="M198.94358,225.092806 C198.94358,225.092806 293.114008,240.258633 303.488716,371.961871 C303.488716,371.961871 285.931518,383.136691 267.576265,383.934892 C267.576265,383.934892 269.172374,282.563309 198.94358,225.092806 L198.94358,225.092806 L198.94358,225.092806 Z" id="Shape" fill="#050505"></path>
                                <path d="M291.631907,313.921223 C286.501556,316.429856 275.556809,320.76295 258.683658,322.473381 C259.253696,324.639928 259.823735,326.806475 260.393774,328.973022 C267.120233,327.946763 279.205058,325.438129 293.684047,319.736691 C293,317.798201 292.315953,315.859712 291.631907,313.921223 L291.631907,313.921223 L291.631907,313.921223 Z M254.009339,307.421583 C254.693385,309.588129 255.49144,311.640647 256.061479,313.807194 C262.217899,313.123022 276.126848,311.184532 288.439689,305.711151 C287.527626,303.658633 286.729572,301.606115 285.81751,299.667626 C281.257198,301.720144 271.224514,305.369065 254.009339,307.421583 L254.009339,307.421583 L254.009339,307.421583 Z M303.488716,371.961871 C302.576654,359.87482 300.866537,348.814029 298.700389,338.665468 C291.517899,343.11259 280.117121,348.471942 264.72607,350.52446 C267.918288,370.479496 267.690272,383.934892 267.690272,383.934892 C285.931518,383.136691 303.488716,371.961871 303.488716,371.961871 L303.488716,371.961871 L303.488716,371.961871 Z" id="Shape" fill="#DD002A"></path>
                                <ellipse id="Oval" fill="#F4CF8C" cx="101.808949" cy="125.317626" rx="20.1793774" ry="20.1830935"></ellipse>
                                <ellipse id="Oval" fill="#F4CF8C" cx="101.808949" cy="125.317626" rx="20.1793774" ry="20.1830935"></ellipse>
                                <path d="M81.629572,125.317626 C81.629572,125.88777 81.629572,126.571942 81.7435798,127.142086 C83.2256809,126.571942 84.7077821,125.773741 86.3038911,124.633453 C95.8805447,118.475899 96.1085603,111.178058 94.0564202,106.616906 C86.7599222,109.809712 81.629572,116.993525 81.629572,125.317626 L81.629572,125.317626 Z" id="Shape" fill="#F4CF8C"></path>
                                <ellipse id="Oval" fill="#F4CF8C" cx="91.4342412" cy="125.317626" rx="9.80466926" ry="9.80647482"></ellipse>
                                <path d="M91.4342412,115.62518 C91.0922179,115.62518 90.6361868,115.62518 90.2941634,115.739209 C94.0564202,116.309353 97.0206226,120.414388 97.0206226,125.431655 C97.0206226,130.448921 94.0564202,134.553957 90.2941634,135.124101 C90.6361868,135.124101 91.0922179,135.238129 91.4342412,135.238129 C96.792607,135.238129 101.238911,130.905036 101.238911,125.431655 C101.124903,119.958273 96.792607,115.62518 91.4342412,115.62518 L91.4342412,115.62518 L91.4342412,115.62518 Z" id="Shape" fill="#D8AF6F"></path>
                                <path d="M90.1801556,115.739209 C89.8381323,115.739209 89.6101167,115.62518 89.2680934,115.62518 C85.0498054,115.62518 81.629572,119.958273 81.629572,125.431655 C81.629572,120.414388 85.3918288,116.309353 90.1801556,115.739209 L90.1801556,115.739209 Z M81.629572,125.317626 C81.629572,130.676978 85.0498054,135.124101 89.2680934,135.124101 C89.6101167,135.124101 89.8381323,135.124101 90.1801556,135.010072 C85.3918288,134.439928 81.629572,130.334892 81.629572,125.317626 L81.629572,125.317626 Z" id="Shape" fill="#F4CF8C"></path>
                                <ellipse id="Oval" fill="#F4CF8C" cx="220.035019" cy="125.317626" rx="20.1793774" ry="20.1830935"></ellipse>
                                <ellipse id="Oval" fill="#F4CF8C" cx="220.035019" cy="125.317626" rx="20.1793774" ry="20.1830935"></ellipse>
                                <ellipse id="Oval" fill="#F4CF8C" cx="230.409728" cy="125.317626" rx="9.80466926" ry="9.80647482"></ellipse>
                                <path d="M224.823346,125.317626 C224.823346,120.30036 227.787549,116.195324 231.549805,115.62518 C231.207782,115.62518 230.751751,115.511151 230.409728,115.511151 C225.051362,115.511151 220.605058,119.844245 220.605058,125.317626 C220.605058,130.676978 224.937354,135.124101 230.409728,135.124101 C230.751751,135.124101 231.207782,135.124101 231.549805,135.010072 C227.787549,134.439928 224.823346,130.334892 224.823346,125.317626 L224.823346,125.317626 Z" id="Shape" fill="#D8AF6F"></path>
                                <path d="M240.214397,125.317626 C240.214397,119.958273 236.794163,115.511151 232.575875,115.511151 C232.233852,115.511151 232.005837,115.511151 231.663813,115.62518 C236.45214,116.309353 240.214397,120.414388 240.214397,125.317626 L240.214397,125.317626 Z M231.663813,135.010072 C232.005837,135.010072 232.233852,135.124101 232.575875,135.124101 C236.794163,135.124101 240.214397,130.791007 240.214397,125.317626 C240.214397,130.334892 236.45214,134.439928 231.663813,135.010072 L231.663813,135.010072 L231.663813,135.010072 Z M45.3750973,138.316906 C45.3750973,138.316906 64.6424125,140.82554 62.1342412,121.554676 C62.1342412,121.554676 68.8607004,132.045324 83.9097276,122.352878 C98.9587549,112.77446 90.9782101,100.117266 86.87393,99.7751799 C82.655642,99.3190647 76.8412451,94.7579137 62.1342412,109.809712 L53.8116732,90.5388489 L63.3883268,77.9956835 C63.3883268,77.9956835 64.7564202,96.126259 78.6653696,90.994964 C92.6883268,85.8636691 82.1996109,54.9618705 69.6587549,54.9618705 L47.085214,67.9611511 C47.085214,67.9611511 51.3035019,56.2161871 69.6587549,46.6377698 C69.6587549,46.6377698 76.7272374,42.418705 72.6229572,31.9280576 C68.4046693,21.4374101 28.6159533,28.9633094 22.3455253,80.0482014 C22.3455253,80.0482014 15.2770428,73.3205036 16.8731518,62.8298561 C18.4692607,52.3392086 -3.64824903,55.3039568 0.570038911,77.8816547 C4.78832685,100.459353 26.5638132,105.134532 26.5638132,105.134532 C26.5638132,105.134532 33.9743191,117.107554 28.6159533,130.676978 C28.6159533,130.791007 37.0525292,141.167626 45.3750973,138.316906 L45.3750973,138.316906 Z M83.9097276,122.352878 C98.9587549,112.77446 90.9782101,100.117266 86.87393,99.7751799 C84.251751,99.5471223 81.0595331,97.7226619 75.5871595,99.7751799 L80.4894942,109.923741 C80.4894942,109.923741 79.4634241,124.405396 63.2743191,120.756475 C63.2743191,120.756475 63.1603113,121.326619 62.7042802,122.238849 C64.5284047,124.405396 71.2548638,130.448921 83.9097276,122.352878 L83.9097276,122.352878 Z M62.248249,122.923022 C59.7400778,127.370144 51.0754864,136.036331 30.0980545,125.317626 C29.7560311,127.256115 29.3,128.852518 28.6159533,130.791007 C28.6159533,130.791007 36.9385214,141.281655 45.3750973,138.316906 C45.3750973,138.316906 63.7303502,140.711511 62.248249,122.923022 L62.248249,122.923022 Z M63.3883268,77.9956835 C63.3883268,77.9956835 64.7564202,96.126259 78.6653696,90.994964 C84.3657588,88.942446 85.9618677,82.4428058 85.0498054,75.6010791 C81.5155642,79.25 70.7988327,88.3723022 66.5805447,68.9874101 L47.4272374,91.3370504 L32.2642023,100.117266 L51.1894942,95.3280576 L62.248249,109.695683 L53.9256809,90.4248201 L63.3883268,77.9956835 L63.3883268,77.9956835 Z M50.2774319,62.4877698 C53.355642,58.1546763 59.2840467,51.9971223 69.7727626,46.523741 C69.7727626,46.523741 76.8412451,42.3046763 72.736965,31.8140288 C72.6229572,31.5859712 72.6229572,31.4719424 72.5089494,31.2438849 C71.4828794,34.4366906 69.5447471,38.1996403 65.7824903,40.8223022 C58.0299611,46.1816547 30.32607,65.452518 39.1046693,94.5298561 C38.9906615,94.7579137 35.3424125,76.7413669 50.2774319,62.4877698 L50.2774319,62.4877698 Z M22.0035019,79.7061151 C20.5214008,78.1097122 15.5050584,71.9521583 16.9871595,62.9438849 C17.6712062,58.8388489 14.5929961,56.7863309 10.9447471,57.242446 C10.1466926,68.4172662 11.7428016,91.2230216 33.8603113,97.7226619 C33.8603113,97.7226619 25.5377432,93.8456835 22.0035019,79.7061151 L22.0035019,79.7061151 Z" id="Shape" fill="#F4CF8C"></path>
                                <path d="M28.6159533,130.791007 L45.3750973,138.316906 C45.3750973,138.316906 30.32607,221.215827 108.99144,224.636691 C108.99144,224.636691 109.561479,278.002158 60.9941634,277.089928 C60.9941634,277.089928 -3.1922179,226.005036 28.6159533,130.791007 L28.6159533,130.791007 Z" id="Shape" fill="#050505"></path>
                                <path d="M48.681323,183.358273 C48.4533074,182.560072 48.2252918,181.875899 47.9972763,181.077698 L47.9972763,181.077698 C44.2350195,183.016187 34.3163424,187.349281 19.9513619,187.235252 C20.0653696,189.059712 20.1793774,190.884173 20.2933852,192.708633 C27.4758755,192.708633 39.4466926,191.796403 49.8214008,186.208993 L49.8214008,186.094964 C49.4793774,185.296763 49.2513619,184.498561 49.0233463,183.70036 L48.681323,183.358273 L48.681323,183.358273 Z M54.0396887,195.217266 C53.6976654,194.533094 53.2416342,193.848921 52.8996109,193.164748 L52.8996109,193.164748 C48.5673152,195.217266 36.7105058,200.006475 20.9774319,200.120504 C21.2054475,202.173022 21.5474708,204.22554 21.8894942,206.164029 C30.4400778,206.164029 42.9809339,204.681655 55.2937743,197.497842 L55.2937743,197.383813 C54.8377432,196.69964 54.4957198,196.015468 54.0396887,195.331295 L54.0396887,195.217266 L54.0396887,195.217266 L54.0396887,195.217266 Z M28.6159533,130.791007 C24.055642,143.220144 22.1175097,154.73705 20.6354086,165.455755 C28.6159533,166.938129 36.5964981,167.166187 44.463035,162.034892 C43.436965,148.579496 45.3750973,138.316906 45.3750973,138.316906 L28.6159533,130.791007 L28.6159533,130.791007 Z" id="Shape" fill="#DD002A"></path>
                                <path d="M53.0136187,343.454676 L155.620623,475.728058 C155.620623,475.728058 159.610895,477.210432 161.321012,475.157914 L161.321012,343.454676 L53.0136187,343.454676 L53.0136187,343.454676 Z M268.83035,343.454676 L166.223346,475.728058 C166.223346,475.728058 162.233074,477.210432 160.522957,475.157914 L160.522957,343.454676 L268.83035,343.454676 L268.83035,343.454676 Z M208.17821,222.470144 L113.779767,222.470144 C13.2249027,266.599281 36.5964981,433.195324 36.5964981,433.195324 L161.549027,433.195324 L161.549027,357.024101 L168.503502,433.195324 L285.247471,433.195324 C285.247471,433.081295 308.733074,266.599281 208.17821,222.470144 L208.17821,222.470144 L208.17821,222.470144 Z" id="Shape" fill="#050505"></path>
                                <path d="M248.650973,384.961151 C248.650973,384.961151 258.683658,419.283813 270.426459,422.704676 C282.169261,426.011511 284.677432,419.397842 284.677432,419.397842 C287.983658,419.283813 290.491829,418.143525 292.315953,416.661151 C293.114008,404.574101 293.684047,386.89964 292.315953,366.944604 C272.93463,364.321942 248.650973,384.961151 248.650973,384.961151 L248.650973,384.961151 Z" id="Shape" fill="#F4CF8C"></path>
                                <path d="M292.885992,377.435252 C291.517899,341.630216 284.335409,295.676619 260.165759,261.125899 C231.32179,230.338129 198.94358,225.092806 198.94358,225.092806 C269.172374,282.563309 267.576265,383.934892 267.576265,383.934892 C276.924903,383.478777 286.159533,380.4 292.885992,377.435252 L292.885992,377.435252 Z" id="Shape" fill="#930023"></path>
                                <path d="M40.5867704,326.236331 C40.2447471,327.718705 39.9027237,329.315108 39.6747082,330.797482 C67.492607,320.534892 111.385603,313.921223 160.864981,313.921223 C210.344358,313.921223 254.351362,320.534892 282.055253,330.797482 C281.71323,329.315108 281.485214,327.718705 281.143191,326.236331 C253.325292,316.201799 209.774319,309.702158 160.864981,309.702158 C111.955642,309.702158 68.4046693,316.201799 40.5867704,326.236331 L40.5867704,326.236331 Z M46.1731518,305.141007 C45.7171206,306.509353 45.3750973,307.877698 44.9190661,309.246043 C72.8509728,300.009712 114.463813,294.194245 160.978988,294.194245 C207.494163,294.194245 249.107004,300.009712 277.038911,309.246043 C276.582879,307.877698 276.240856,306.509353 275.784825,305.141007 C247.852918,296.132734 206.810117,290.545324 160.978988,290.545324 C115.14786,290.545324 73.9910506,296.246763 46.1731518,305.141007 L46.1731518,305.141007 Z M85.1638132,240.714748 C63.6163424,268.423741 66.0105058,302.290288 66.0105058,302.290288 L71.8249027,299.667626 C70.0007782,270.248201 83.4536965,246.872302 91.8902724,235.241367 C89.6101167,236.951799 87.3299611,238.776259 85.1638132,240.714748 L85.1638132,240.714748 Z M229.953696,235.241367 C238.390272,246.872302 251.843191,270.134173 250.019066,299.667626 L255.833463,302.290288 C255.833463,302.290288 258.113619,268.53777 236.680156,240.714748 C234.514008,238.776259 232.233852,236.951799 229.953696,235.241367 L229.953696,235.241367 L229.953696,235.241367 Z M161.549027,357.024101 L168.503502,433.195324 L285.247471,433.195324 C285.247471,433.195324 292.429961,382.110432 281.71323,328.973022 L275.784825,327.034532 C285.589494,353.831295 281.029183,426.12554 281.029183,426.12554 L174.77393,426.12554 L164.741245,313.807194 L156.646693,313.807194 L155.620623,426.12554 L42.0688716,426.12554 C36.8245136,375.154676 44.9190661,327.26259 44.9190661,327.26259 L40.1307393,328.630935 C29.3,381.882374 36.5964981,433.195324 36.5964981,433.195324 L161.549027,433.195324 L161.549027,357.024101 L161.549027,357.024101 L161.549027,357.024101 Z" id="Shape" fill="#DD002A"></path>
                                <path d="M213.194553,218.935252 C213.194553,218.935252 193.129183,237.179856 160.066926,237.179856 C120.848249,237.179856 108.649416,218.935252 108.649416,218.935252 L101.694942,90.994964 L220.035019,90.994964 L213.194553,218.935252 L213.194553,218.935252 L213.194553,218.935252 Z M213.194553,218.935252 C213.194553,218.935252 193.129183,237.179856 160.066926,237.179856 C120.848249,237.179856 108.649416,218.935252 108.649416,218.935252 L101.694942,90.994964 L220.035019,90.994964 L213.194553,218.935252 L213.194553,218.935252 L213.194553,218.935252 Z M213.194553,218.935252 C213.194553,218.935252 193.129183,237.179856 160.066926,237.179856 C120.848249,237.179856 108.649416,218.935252 108.649416,218.935252 L101.694942,90.994964 L220.035019,90.994964 L213.194553,218.935252 L213.194553,218.935252 L213.194553,218.935252 Z" id="Shape" fill="#F4CF8C"></path>
                                <path d="M175.914008,112.888489 L178.87821,109.12554 C178.87821,109.12554 189.480934,108.555396 205.898054,117.335612 C205.898054,117.335612 194.041245,102.739928 176.256031,107.643165 L176.82607,104.45036 L171.809728,112.660432 C171.809728,112.660432 173.633852,123.721223 171.69572,131.703237 L150.376265,131.703237 C148.438132,123.721223 150.262257,112.660432 150.262257,112.660432 L145.245914,104.45036 L145.815953,107.643165 C128.030739,102.739928 116.17393,117.335612 116.17393,117.335612 C132.477043,108.555396 143.193774,109.12554 143.193774,109.12554 L146.157977,112.888489 C140.457588,124.291367 127.004669,125.203597 127.004669,125.203597 C141.141634,126.685971 146.271984,117.905755 146.271984,117.905755 C145.47393,124.861511 146.956031,133.983813 146.956031,133.983813 L161.092996,144.018345 L161.207004,143.904317 L161.321012,144.018345 L175.457977,133.983813 C175.457977,133.983813 176.940078,124.861511 176.142023,117.905755 C176.142023,117.905755 181.272374,126.685971 195.409339,125.203597 C195.067315,125.203597 181.614397,124.291367 175.914008,112.888489 L175.914008,112.888489 L175.914008,112.888489 Z" id="Shape" fill="#B27D30"></path>
                                <ellipse id="Oval" fill="#050505" cx="160.864981" cy="154.280935" rx="19.381323" ry="11.6309353"></ellipse>
                                <path d="M160.864981,166.482014 C165.311284,166.482014 169.301556,164.99964 172.607782,163.517266 C170.327626,161.008633 165.995331,159.41223 160.864981,159.41223 C155.848638,159.41223 151.402335,161.122662 149.122179,163.517266 C152.428405,164.99964 156.532685,166.482014 160.864981,166.482014 L160.864981,166.482014 Z" id="Shape" fill="#DD002A"></path>
                                <path d="M160.864981,142.65 C150.148249,142.65 141.483658,147.895324 141.483658,154.280935 C141.483658,154.623022 141.483658,154.965108 141.597665,155.307194 L180.246304,155.307194 C180.246304,154.965108 180.360311,154.623022 180.360311,154.280935 C180.360311,147.895324 171.69572,142.65 160.864981,142.65 L160.864981,142.65 L160.864981,142.65 Z" id="Shape" fill="#FFFFFF"></path>
                                <path d="M160.864981,173.43777 C156.874708,173.43777 153.226459,172.753597 150.148249,171.499281 C152.65642,174.692086 156.418677,176.744604 160.864981,176.744604 C165.197276,176.744604 169.073541,174.692086 171.581712,171.499281 C168.503502,172.753597 164.855253,173.43777 160.864981,173.43777 L160.864981,173.43777 Z M160.864981,208.102518 C154.138521,208.102518 147.868093,206.848201 142.623735,204.795683 C146.842023,210.269065 153.454475,213.689928 160.864981,213.689928 C168.275486,213.689928 174.887938,210.155036 179.106226,204.795683 C173.861868,206.848201 167.705447,208.102518 160.864981,208.102518 L160.864981,208.102518 L160.864981,208.102518 Z" id="Shape" fill="#C98C28"></path>
                                <path d="M102.835019,112.090288 L218.894942,112.090288 L220.035019,91.1089928 L101.694942,91.1089928 L102.835019,112.090288 L102.835019,112.090288 Z" id="Shape" fill="#CEA063"></path>
                                <path d="M220.377043,90.994964 L230.751751,30.9017986 C230.751751,30.9017986 215.132685,0.114028777 161.207004,0.114028777 C95.766537,0.114028777 90.9782101,30.9017986 90.9782101,30.9017986 L101.466926,90.994964 L220.377043,90.994964 L220.377043,90.994964 Z" id="Shape" fill="#050505"></path>
                                <path d="M97.0206226,65.2244604 L101.466926,90.994964 L220.377043,90.994964 L224.823346,65.2244604 L97.0206226,65.2244604 L97.0206226,65.2244604 Z" id="Shape" fill="#DD002A"></path>
                                <path d="M238.276265,105.36259 L83.5677043,105.36259 L78.7793774,90.994964 L243.178599,90.994964 L238.276265,105.36259 L238.276265,105.36259 Z" id="Shape" fill="#050505"></path>
                                <ellipse id="Oval" fill="#050505" cx="160.864981" cy="73.5485612" rx="19.1533074" ry="19.1568345"></ellipse>
                                <path d="M160.864981,90.3107914 C151.63035,90.3107914 144.105837,82.7848921 144.105837,73.5485612 C144.105837,64.3122302 151.63035,56.7863309 160.864981,56.7863309 C170.099611,56.7863309 177.624125,64.3122302 177.624125,73.5485612 C177.738132,82.7848921 170.213619,90.3107914 160.864981,90.3107914 L160.864981,90.3107914 Z M160.864981,58.9528777 C152.770428,58.9528777 146.271984,65.452518 146.271984,73.5485612 C146.271984,81.6446043 152.770428,88.1442446 160.864981,88.1442446 C168.959533,88.1442446 175.457977,81.6446043 175.457977,73.5485612 C175.571984,65.452518 168.959533,58.9528777 160.864981,58.9528777 L160.864981,58.9528777 L160.864981,58.9528777 Z M160.864981,85.6356115 C154.138521,85.6356115 148.780156,80.1622302 148.780156,73.5485612 C148.780156,66.8208633 154.252529,61.4615108 160.864981,61.4615108 C167.59144,61.4615108 172.949805,66.9348921 172.949805,73.5485612 C173.063813,80.1622302 167.59144,85.6356115 160.864981,85.6356115 L160.864981,85.6356115 Z M160.864981,62.9438849 C155.050584,62.9438849 150.376265,67.6190647 150.376265,73.4345324 C150.376265,79.25 155.050584,83.9251799 160.864981,83.9251799 C166.679377,83.9251799 171.353696,79.25 171.353696,73.4345324 C171.467704,67.7330935 166.679377,62.9438849 160.864981,62.9438849 L160.864981,62.9438849 Z M163.943191,69.2154676 L169.415564,65.2244604 L165.197276,70.5838129 L171.809728,68.8733813 L165.995331,72.4082734 L172.72179,73.2064748 L165.995331,74.3467626 L172.151751,77.5395683 L165.5393,76.171223 L169.985603,81.302518 L164.285214,77.6535971 L166.56537,84.0392086 L162.575097,78.5658273 L162.461089,85.407554 L160.750973,78.7938849 L158.128794,85.0654676 L158.81284,78.3377698 L154.138521,83.2410072 L157.216732,77.197482 L151.060311,80.0482014 L156.190661,75.4870504 L149.350195,75.9431655 L155.73463,73.5485612 L149.236187,71.4960432 L156.076654,71.6100719 L150.718288,67.3910072 L156.988716,69.8996403 L153.568482,64.0841727 L158.470817,68.7593525 L157.330739,62.0316547 L160.294942,68.1892086 L161.663035,61.5755396 L162.233074,68.4172662 L165.995331,62.7158273 L163.943191,69.2154676 L163.943191,69.2154676 Z" id="Shape" fill="#DD002A"></path>
                                <path d="M164.51323,73.5485612 C164.51323,75.6010791 162.917121,77.197482 160.864981,77.197482 C158.81284,77.197482 157.216732,75.6010791 157.216732,73.5485612 C157.216732,71.4960432 158.81284,69.8996403 160.864981,69.8996403 C162.917121,69.8996403 164.51323,71.4960432 164.51323,73.5485612 L164.51323,73.5485612 Z" id="Shape" fill="#050505"></path>
                                <path d="M160.066926,237.293885 C120.848249,237.293885 108.649416,219.049281 108.649416,219.049281 L110.01751,245.047842 C110.01751,245.047842 121.760311,262.836331 160.066926,262.836331 C192.217121,262.836331 211.712451,245.047842 211.712451,245.047842 L213.194553,218.935252 C213.080545,218.935252 193.015175,237.293885 160.066926,237.293885 L160.066926,237.293885 L160.066926,237.293885 Z" id="Shape" fill="#DD002A"></path>
                                <path d="M160.864981,262.380216 C161.777043,258.959353 162.347082,254.626259 162.347082,249.951079 C162.347082,245.161871 161.777043,240.828777 160.864981,237.521942 C159.952918,240.942806 159.382879,245.275899 159.382879,249.951079 C159.382879,254.626259 159.952918,259.073381 160.864981,262.380216 L160.864981,262.380216 L160.864981,262.380216 Z" id="Shape" fill="#050505"></path>
                                <ellipse id="Oval" fill="#930023" cx="170.213619" cy="250.749281" rx="3.53424125" ry="3.53489209"></ellipse>
                                <ellipse id="Oval" fill="#FFFFFF" cx="169.415564" cy="249.951079" rx="3.53424125" ry="3.53489209"></ellipse>
                                <path d="M173.633852,285.756115 L148.210117,285.756115 C144.219844,285.756115 140.913619,289.06295 140.913619,293.053957 L140.913619,311.184532 C140.913619,315.17554 144.219844,318.482374 148.210117,318.482374 L173.633852,318.482374 C177.624125,318.482374 180.93035,315.17554 180.93035,311.184532 L180.93035,293.053957 C180.93035,288.948921 177.624125,285.756115 173.633852,285.756115 L173.633852,285.756115 Z M171.69572,295.904676 L171.69572,308.333813 C171.69572,309.017986 171.125681,309.702158 170.327626,309.702158 L151.516342,309.702158 C150.832296,309.702158 150.148249,309.132014 150.148249,308.333813 L150.148249,295.904676 C150.148249,295.220504 150.718288,294.536331 151.516342,294.536331 L170.327626,294.536331 C171.011673,294.536331 171.69572,295.106475 171.69572,295.904676 L171.69572,295.904676 L171.69572,295.904676 Z" id="Shape" fill="#FFB000"></path>
                                <path d="M146.842023,133.983813 L160.864981,143.904317 L160.978988,143.790288 L161.092996,143.904317 L175.115953,133.983813 L146.842023,133.983813 L146.842023,133.983813 Z" id="Shape" fill="#C98C28"></path>
                                <path d="M160.864981,141.73777 C160.864981,141.73777 149.008171,127.598201 121.190272,134.553957 L79.1214008,175.946403 C79.1214008,175.946403 94.2844358,187.235252 117.998054,184.156475 C141.711673,181.077698 161.092996,155.763309 160.864981,141.73777 L160.864981,141.73777 Z M160.864981,141.73777 C160.864981,141.73777 172.72179,127.598201 200.539689,134.553957 C228.357588,141.509712 242.60856,175.946403 242.60856,175.946403 C242.60856,175.946403 227.445525,187.235252 203.731907,184.156475 C180.018288,181.077698 160.750973,155.763309 160.864981,141.73777 L160.864981,141.73777 L160.864981,141.73777 Z" id="Shape" fill="#4F1907"></path>
                                <path d="M218.552918,262.608273 L221.061089,262.608273 L216.614786,267.967626 L212.28249,262.608273 L214.790661,262.608273 L214.790661,260.213669 L205.442023,260.213669 L205.442023,262.608273 L209.090272,262.608273 L215.246693,270.248201 L215.246693,275.03741 L211.598444,275.03741 L211.598444,277.432014 L221.403113,277.432014 L221.403113,275.03741 L217.754864,275.03741 L217.754864,270.248201 L223.911284,262.608273 L227.559533,262.608273 L227.559533,260.213669 L218.210895,260.213669 L218.552918,262.608273 L218.552918,262.608273 Z" id="Shape" fill="#DD002A"></path>
                            </g>
                        </g>
                    </g>
                </g>
            </g>
            <g id="javascript" transform="translate(685.000000, 402.000000)">
                <g id="Group">
                    <path d="M0,0 L359,0 L359,359 L0,359 L0,0 L0,0 Z" id="Shape" fill="#F7DF1E"></path>
                    <path d="M94.3942063,300.006613 L121.867394,283.380354 C127.167487,292.777606 131.988914,300.728602 143.553843,300.728602 C154.639535,300.728602 161.628638,296.392109 161.628638,279.524809 L161.628638,164.81576 L195.365521,164.81576 L195.365521,280.001765 C195.365521,314.944432 174.883146,330.849272 145.0001,330.849272 C118.011848,330.849272 102.345771,316.871635 94.3936365,300.003763" id="Shape" fill="#000000"></path>
                    <path d="M213.690476,296.39154 L241.160244,280.4867 C248.391531,292.296091 257.789922,300.970784 274.41675,300.970784 C288.395527,300.970784 297.309554,293.981681 297.309554,284.342246 C297.309554,272.775038 288.152775,268.677879 272.72945,261.932668 L264.297509,258.315316 C239.95674,247.955032 223.810287,234.942137 223.810287,207.469519 C223.810287,182.166287 243.088587,162.886847 273.212676,162.886847 C294.660362,162.886847 310.083116,170.358037 321.167098,189.87795 L294.899695,206.745821 C289.115806,196.384397 282.852112,192.288378 273.213246,192.288378 C263.332768,192.288378 257.066794,198.553782 257.066794,206.745821 C257.066794,216.867341 263.332768,220.965069 277.790212,227.231044 L286.223862,230.845547 C314.901124,243.136454 331.047576,255.666124 331.047576,283.86016 C331.047576,314.225862 307.190602,330.852121 275.14045,330.852121 C243.812856,330.852121 223.569815,315.912022 213.691046,296.39154" id="Shape" fill="#000000"></path>
                </g>
            </g>
            <g id="jasmine" transform="translate(1171.000000, 52.000000)" fill="#8A4182">
                <g id="Group" transform="translate(128.000000, 127.500000) scale(1, -1) translate(-128.000000, -127.500000) ">
                    <path d="M118.267273,149.665989 L138.061818,149.665989 L142.98,156.398644 L142.98,209.126328 L113.352727,209.126328 L113.352727,156.39322 L118.267273,149.665989" id="Shape"></path>
                    <path d="M105.508545,126.148701 L111.623636,144.865989 L106.705273,151.596836 L56.2712727,167.889718 L47.1172727,139.87435 L97.5567273,123.577853 L105.508545,126.148701" id="Shape"></path>
                    <path d="M124.06,106.813107 L108.047636,118.383729 L100.088727,115.811073 L68.9203636,73.1516384 L92.8878182,55.8376497 L124.06,98.4985311 L124.06,106.813107" id="Shape"></path>
                    <path d="M148.285455,118.385537 L132.269091,106.816723 L132.272727,98.4967232 L163.441818,55.8376497 L187.410909,73.1516384 L156.236364,115.814689 L148.285455,118.385537" id="Shape"></path>
                    <path d="M144.701818,144.869605 L150.82,126.150508 L158.778182,123.581469 L209.212727,139.87435 L200.056364,167.891525 L149.62,151.595028 L144.701818,144.869605" id="Shape"></path>
                    <path d="M128.170909,254.893559 C57.7094545,254.893559 0.383454545,197.901017 0.383454545,127.848136 C0.383454545,57.7697627 57.7094545,0.761310734 128.170909,0.761310734 C198.625455,0.761310734 255.945455,57.7697627 255.945455,127.848136 C255.945455,197.901017 198.625455,254.893559 128.170909,254.893559 L128.170909,254.893559 L128.170909,254.893559 L128.170909,254.893559 Z M128.170909,229.168814 C184.44,229.168814 230.070909,183.811977 230.070909,127.848136 C230.070909,71.8662147 184.44,26.4894915 128.170909,26.4894915 C71.8827273,26.4894915 26.2578182,71.8662147 26.2578182,127.848136 C26.2578182,183.811977 71.8827273,229.168814 128.170909,229.168814 L128.170909,229.168814 L128.170909,229.168814 Z" id="Shape"></path>
                    <path d="M205.565455,99.6085876 L167.227273,111.996384 L169.761818,119.761356 L208.1,107.373559 L205.565455,99.6085876" id="Shape"></path>
                    <path d="M156.669091,160.809944 L150.025455,165.608136 L173.718182,198.03661 L180.361818,193.238418 L156.669091,160.809944" id="Shape"></path>
                    <path d="M100.071818,161.104633 L76.3821818,193.534915 L83.0263636,198.333107 L106.716,165.904633 L100.071818,161.104633" id="Shape"></path>
                    <path d="M50.608,100.093107 L48.0718182,107.858079 L86.4061818,120.240452 L88.9425455,112.47548 L50.608,100.093107" id="Shape"></path>
                    <path d="M123.807273,46.8411299 L132.018218,46.8411299 L132.018218,86.9259209 L123.807273,86.9259209 L123.807273,46.8411299 L123.807273,46.8411299 L123.807273,46.8411299 Z" id="Shape"></path>
                </g>
            </g>
            <g id="nodejs" transform="translate(1555.000000, 43.000000)">
                <g id="Group">
                    <path d="M253.110609,313.094357 C251.376975,313.094357 249.758916,312.632054 248.256433,311.823025 L232.884876,302.692551 C230.573363,301.421219 231.72912,300.958916 232.422573,300.727765 C235.543115,299.687585 236.120993,299.456433 239.357111,297.607223 C239.703837,297.376072 240.16614,297.491648 240.512867,297.722799 L252.30158,304.772912 C252.763883,305.004063 253.341761,305.004063 253.688488,304.772912 L299.80316,278.074944 C300.265463,277.843792 300.496614,277.38149 300.496614,276.803612 L300.496614,223.523251 C300.496614,222.945372 300.265463,222.48307 299.80316,222.251919 L253.688488,195.669526 C253.226185,195.438375 252.648307,195.438375 252.30158,195.669526 L206.186907,222.251919 C205.724605,222.48307 205.493454,223.060948 205.493454,223.523251 L205.493454,276.803612 C205.493454,277.265914 205.724605,277.843792 206.186907,278.074944 L218.78465,285.356208 C225.603612,288.823476 229.87991,284.77833 229.87991,280.733183 L229.87991,228.146275 C229.87991,227.452822 230.457788,226.759368 231.266817,226.759368 L237.161174,226.759368 C237.854628,226.759368 238.548081,227.337246 238.548081,228.146275 L238.548081,280.733183 C238.548081,289.863657 233.57833,295.180135 224.910158,295.180135 C222.251919,295.180135 220.171558,295.180135 214.277201,292.290745 L202.141761,285.356208 C199.136795,283.622573 197.287585,280.386456 197.287585,276.919187 L197.287585,223.638826 C197.287585,220.171558 199.136795,216.93544 202.141761,215.201806 L248.256433,188.503837 C251.145824,186.885779 255.075395,186.885779 257.964786,188.503837 L304.079458,215.201806 C307.084424,216.93544 308.933634,220.171558 308.933634,223.638826 L308.933634,276.919187 C308.933634,280.386456 307.084424,283.622573 304.079458,285.356208 L257.964786,312.054176 C256.462302,312.74763 254.728668,313.094357 253.110609,313.094357 L253.110609,313.094357 Z M267.326411,276.456885 C247.100677,276.456885 242.939955,267.210835 242.939955,259.351693 C242.939955,258.658239 243.517833,257.964786 244.326862,257.964786 L250.336795,257.964786 C251.030248,257.964786 251.608126,258.427088 251.608126,259.120542 C252.532731,265.24605 255.190971,268.251016 267.441986,268.251016 C277.150339,268.251016 281.311061,266.055079 281.311061,260.854176 C281.311061,257.84921 280.155305,255.653273 265.014898,254.15079 C252.417156,252.879458 244.558014,250.105643 244.558014,240.050564 C244.558014,230.688939 252.417156,225.141309 265.592777,225.141309 C280.386456,225.141309 287.66772,230.226637 288.592325,241.321896 C288.592325,241.668623 288.476749,242.01535 288.245598,242.362077 C288.014447,242.593228 287.66772,242.824379 287.320993,242.824379 L281.311061,242.824379 C280.733183,242.824379 280.155305,242.362077 280.039729,241.784199 C278.652822,235.42754 275.069977,233.347178 265.592777,233.347178 C254.959819,233.347178 253.688488,237.045598 253.688488,239.819413 C253.688488,243.171106 255.190971,244.211287 269.522348,246.060497 C283.738149,247.909707 290.441535,250.567946 290.441535,260.507449 C290.325959,270.678104 282.004515,276.456885 267.326411,276.456885 L267.326411,276.456885 Z" id="Shape" fill="#539E43"></path>
                    <path d="M110.027991,104.711512 C110.027991,102.631151 108.872235,100.666366 107.023025,99.6261851 L58.0189616,71.4257336 C57.2099323,70.9634312 56.2853273,70.7322799 55.3607223,70.6167043 L54.8984199,70.6167043 C53.9738149,70.6167043 53.0492099,70.9634312 52.2401806,71.4257336 L3.23611738,99.6261851 C1.38690745,100.666366 0.231151242,102.631151 0.231151242,104.711512 L0.346726862,180.52912 C0.346726862,181.5693 0.924604966,182.609481 1.84920993,183.071783 C2.7738149,183.649661 3.92957111,183.649661 4.73860045,183.071783 L33.8636569,166.428894 C35.7128668,165.388713 36.868623,163.423928 36.868623,161.343567 L36.868623,125.861851 C36.868623,123.78149 38.0243792,121.816704 39.8735892,120.776524 L52.2401806,113.610835 C53.1647856,113.032957 54.2049661,112.801806 55.2451467,112.801806 C56.2853273,112.801806 57.3255079,113.032957 58.1345372,113.610835 L70.5011287,120.776524 C72.3503386,121.816704 73.5060948,123.78149 73.5060948,125.861851 L73.5060948,161.343567 C73.5060948,163.423928 74.661851,165.388713 76.5110609,166.428894 L105.636117,183.071783 C106.560722,183.649661 107.716479,183.649661 108.641084,183.071783 C109.565688,182.609481 110.143567,181.5693 110.143567,180.52912 L110.027991,104.711512 L110.027991,104.711512 L110.027991,104.711512 Z" id="Shape" fill="#333333"></path>
                    <path d="M345.571106,0.346726862 C344.646501,-0.115575621 343.490745,-0.115575621 342.681716,0.346726862 C341.757111,0.924604966 341.179233,1.84920993 341.179233,2.88939052 L341.179233,78.013544 C341.179233,78.7069977 340.832506,79.4004515 340.139052,79.862754 C339.445598,80.2094808 338.752144,80.2094808 338.058691,79.862754 L325.807675,72.8126411 C323.958465,71.7724605 321.762528,71.7724605 319.913318,72.8126411 L270.909255,101.128668 C269.060045,102.168849 267.904289,104.133634 267.904289,106.213995 L267.904289,162.730474 C267.904289,164.810835 269.060045,166.775621 270.909255,167.815801 L319.913318,196.131828 C321.762528,197.172009 323.958465,197.172009 325.807675,196.131828 L374.811738,167.815801 C376.660948,166.775621 377.816704,164.810835 377.816704,162.730474 L377.816704,21.8437923 C377.816704,19.6478555 376.660948,17.68307 374.811738,16.6428894 L345.571106,0.346726862 L345.571106,0.346726862 L345.571106,0.346726862 Z M341.063657,144.122799 C341.063657,144.700677 340.832506,145.16298 340.370203,145.394131 L323.611738,155.102483 C323.149436,155.333634 322.571558,155.333634 322.109255,155.102483 L305.35079,145.394131 C304.888488,145.16298 304.657336,144.585102 304.657336,144.122799 L304.657336,124.706095 C304.657336,124.128217 304.888488,123.665914 305.35079,123.434763 L322.109255,113.726411 C322.571558,113.49526 323.149436,113.49526 323.611738,113.726411 L340.370203,123.434763 C340.832506,123.665914 341.063657,124.243792 341.063657,124.706095 L341.063657,144.122799 L341.063657,144.122799 L341.063657,144.122799 Z" id="Shape" fill="#333333"></path>
                    <g transform="translate(402.047404, 70.501129)" id="Shape">
                        <path d="M106.600903,53.7426637 C108.450113,52.7024831 109.490293,50.7376975 109.490293,48.6573363 L109.490293,34.9038375 C109.490293,32.8234763 108.334537,30.8586907 106.600903,29.8185102 L57.9435666,1.61805869 C56.0943567,0.577878104 53.8984199,0.577878104 52.0492099,1.61805869 L3.04514673,29.9340858 C1.19593679,30.9742664 0.04018059,32.9390519 0.04018059,35.0194131 L0.04018059,91.5358916 C0.04018059,93.6162528 1.19593679,95.5810384 3.04514673,96.621219 L51.7024831,124.359368 C53.551693,125.399549 55.7476298,125.399549 57.4812641,124.359368 L86.9530474,107.94763 C87.8776524,107.485327 88.4555305,106.445147 88.4555305,105.404966 C88.4555305,104.364786 87.8776524,103.324605 86.9530474,102.862302 L37.717833,74.5462754 C36.793228,73.9683973 36.2153499,73.0437923 36.2153499,72.0036117 L36.2153499,54.3205418 C36.2153499,53.2803612 36.793228,52.2401806 37.717833,51.7778781 L53.0893905,42.9941309 C54.0139955,42.4162528 55.1697517,42.4162528 56.0943567,42.9941309 L71.4659142,51.7778781 C72.3905192,52.3557562 72.9683973,53.2803612 72.9683973,54.3205418 L72.9683973,68.1896163 C72.9683973,69.2297968 73.5462754,70.2699774 74.4708804,70.7322799 C75.3954853,71.310158 76.5512415,71.310158 77.4758465,70.7322799 L106.600903,53.7426637 L106.600903,53.7426637 L106.600903,53.7426637 Z" fill="#333333"></path>
                        <path d="M54.2451467,51.0844244 C54.5918736,50.8532731 55.0541761,50.8532731 55.4009029,51.0844244 L64.7625282,56.5164786 C65.1092551,56.7476298 65.3404063,57.0943567 65.3404063,57.5566591 L65.3404063,68.4207675 C65.3404063,68.88307 65.1092551,69.2297968 64.7625282,69.4609481 L55.4009029,74.8930023 C55.0541761,75.1241535 54.5918736,75.1241535 54.2451467,74.8930023 L44.8835214,69.4609481 C44.5367946,69.2297968 44.3056433,68.88307 44.3056433,68.4207675 L44.3056433,57.5566591 C44.3056433,57.0943567 44.5367946,56.7476298 44.8835214,56.5164786 L54.2451467,51.0844244 L54.2451467,51.0844244 L54.2451467,51.0844244 Z" fill="#539E43"></path>
                    </g>
                    <g transform="translate(134.067720, 71.501129)">
                        <g id="mask-3" fill="#FFFFFF">
                            <path d="M57.903386,0.84920993 C56.0541761,-0.190970655 53.8582393,-0.190970655 52.0090293,0.84920993 L3.351693,28.9340858 C1.50248307,29.9742664 0.462302483,31.9390519 0.462302483,34.0194131 L0.462302483,90.3047404 C0.462302483,92.3851016 1.61805869,94.3498871 3.351693,95.3900677 L52.0090293,123.474944 C53.8582393,124.515124 56.0541761,124.515124 57.903386,123.474944 L106.560722,95.3900677 C108.409932,94.3498871 109.450113,92.3851016 109.450113,90.3047404 L109.450113,34.0194131 C109.450113,31.9390519 108.294357,29.9742664 106.560722,28.9340858 L57.903386,0.84920993 L57.903386,0.84920993 L57.903386,0.84920993 Z" id="path-2"></path>
                        </g>
                        <g id="path-2-link" fill="url(#linearGradient-4)">
                            <path d="M57.903386,0.84920993 C56.0541761,-0.190970655 53.8582393,-0.190970655 52.0090293,0.84920993 L3.351693,28.9340858 C1.50248307,29.9742664 0.462302483,31.9390519 0.462302483,34.0194131 L0.462302483,90.3047404 C0.462302483,92.3851016 1.61805869,94.3498871 3.351693,95.3900677 L52.0090293,123.474944 C53.8582393,124.515124 56.0541761,124.515124 57.903386,123.474944 L106.560722,95.3900677 C108.409932,94.3498871 109.450113,92.3851016 109.450113,90.3047404 L109.450113,34.0194131 C109.450113,31.9390519 108.294357,29.9742664 106.560722,28.9340858 L57.903386,0.84920993 L57.903386,0.84920993 L57.903386,0.84920993 Z" id="path-2"></path>
                        </g>
                        <g id="Clipped">
                            <mask id="mask-6" fill="white">
                                <use xlink:href="#path-5"></use>
                            </mask>
                            <g id="path-2"></g>
                            <g id="Group" mask="url(#mask-6)">
                                <path d="M51.8934537,0.84920993 L3.12054176,28.9340858 C1.27133183,29.9742664 0,31.9390519 0,34.0194131 L0,90.3047404 C0,91.6916479 0.577878104,92.9629797 1.50248307,94.0031603 L56.2853273,0.15575621 C54.8984199,-0.075395034 53.2803612,0.04018059 51.8934537,0.84920993 L51.8934537,0.84920993 L51.8934537,0.84920993 Z" id="Shape"></path>
                                <path d="M56.6320542,124.052822 C57.0943567,123.937246 57.5566591,123.706095 58.0189616,123.474944 L106.791874,95.3900677 C108.641084,94.3498871 109.79684,92.3851016 109.79684,90.3047404 L109.79684,34.0194131 C109.79684,32.51693 109.103386,31.014447 108.063205,29.9742664 L56.6320542,124.052822 L56.6320542,124.052822 L56.6320542,124.052822 Z" id="Shape"></path>
                                <path d="M106.676298,28.9340858 L57.7878104,0.84920993 C57.3255079,0.61805869 56.7476298,0.38690745 56.2853273,0.27133183 L1.50248307,94.1187359 C1.96478555,94.696614 2.54266366,95.1589165 3.12054176,95.5056433 L52.0090293,123.590519 C53.3959368,124.399549 55.0139955,124.6307 56.5164786,124.168397 L107.94763,30.089842 C107.600903,29.6275395 107.1386,29.2808126 106.676298,28.9340858 L106.676298,28.9340858 L106.676298,28.9340858 Z" id="Shape" fill="url(#linearGradient-7)"></path>
                            </g>
                        </g>
                        <g id="Clipped">
                            <mask id="mask-9" fill="white">
                                <use xlink:href="#path-8"></use>
                            </mask>
                            <g id="path-2"></g>
                            <g id="Group" mask="url(#mask-9)">
                                <g transform="translate(0.000000, -10.246050)" id="Shape">
                                    <path d="M109.79684,100.55079 L109.79684,44.2654628 C109.79684,42.1851016 108.525508,40.220316 106.676298,39.1801354 L57.7878104,11.0952596 C57.2099323,10.7485327 56.6320542,10.5173815 55.9386005,10.4018059 L109.450113,101.822122 C109.681264,101.475395 109.79684,101.013093 109.79684,100.55079 L109.79684,100.55079 L109.79684,100.55079 Z" fill="none"></path>
                                    <path d="M3.12054176,39.1801354 C1.27133183,40.220316 0,42.1851016 0,44.2654628 L0,100.55079 C0,102.631151 1.38690745,104.595937 3.12054176,105.636117 L52.0090293,133.720993 C53.1647856,134.414447 54.4361174,134.645598 55.8230248,134.414447 L3.46726862,39.0645598 L3.12054176,39.1801354 L3.12054176,39.1801354 L3.12054176,39.1801354 Z" fill="none"></path>
                                    <path fill="url(#linearGradient-10)" fill-rule="evenodd" d="M50.3909707,0.809029345 L49.6975169,1.15575621 L50.6221219,1.15575621 L50.3909707,0.809029345 L50.3909707,0.809029345 Z"></path>
                                    <path d="M106.791874,105.636117 C108.178781,104.827088 109.218962,103.440181 109.681264,101.937698 L56.0541761,10.4018059 C54.6672686,10.1706546 53.1647856,10.2862302 51.8934537,11.0952596 L3.351693,39.0645598 L55.7074492,134.530023 C56.4009029,134.414447 57.2099323,134.183296 57.903386,133.836569 L106.791874,105.636117 L106.791874,105.636117 L106.791874,105.636117 Z" fill="url(#linearGradient-11)" fill-rule="evenodd"></path>
                                    <path fill="url(#linearGradient-12)" fill-rule="evenodd" d="M111.299323,104.711512 L110.952596,104.133634 L110.952596,104.942664 L111.299323,104.711512 L111.299323,104.711512 Z"></path>
                                    <path d="M106.791874,105.636117 L58.0189616,133.720993 C57.3255079,134.06772 56.6320542,134.298871 55.8230248,134.414447 L56.7476298,136.148081 L110.83702,104.827088 L110.83702,104.133634 L109.450113,101.822122 C109.218962,103.440181 108.178781,104.827088 106.791874,105.636117 L106.791874,105.636117 L106.791874,105.636117 Z" fill="url(#linearGradient-13)" fill-rule="evenodd"></path>
                                    <path d="M106.791874,105.636117 L58.0189616,133.720993 C57.3255079,134.06772 56.6320542,134.298871 55.8230248,134.414447 L56.7476298,136.148081 L110.83702,104.827088 L110.83702,104.133634 L109.450113,101.822122 C109.218962,103.440181 108.178781,104.827088 106.791874,105.636117 L106.791874,105.636117 L106.791874,105.636117 Z" fill="url(#linearGradient-14)" fill-rule="evenodd"></path>
                                </g>
                            </g>
                        </g>
                    </g>
                </g>
            </g>
            <g id="npm" transform="translate(1555.000000, 524.000000)">
                <g id="Group">
                    <path d="M0,0 L0,132.522008 L110.084942,132.522008 L110.084942,154.736679 L198,154.736679 L198,132.522008 L396,132.522008 L396,0 L0,0 L0,0 L0,0 Z" id="Shape" fill="#CB3837"></path>
                    <path d="M65.7451737,22.2146718 L22.1698841,22.2146718 L22.1698841,44.4293437 L22.1698841,110.307336 L65.7451737,110.307336 L65.7451737,44.4293437 L87.9150579,44.4293437 L87.9150579,110.307336 L110.084942,110.307336 L110.084942,44.4293437 L110.084942,22.2146718 L65.7451737,22.2146718 L65.7451737,22.2146718 L65.7451737,22.2146718 Z" id="Shape" fill="#FFFFFF"></path>
                    <path d="M132.254826,22.2146718 L132.254826,105.711197 L132.254826,110.307336 L132.254826,132.522008 L176.594594,132.522008 L176.594594,110.307336 L220.169884,110.307336 L220.169884,22.2146718 L132.254826,22.2146718 L132.254826,22.2146718 L132.254826,22.2146718 Z M198,88.092664 L176.594594,88.092664 L176.594594,44.4293437 L198,44.4293437 L198,88.092664 L198,88.092664 L198,88.092664 Z" id="Shape" fill="#FFFFFF"></path>
                    <path d="M285.915058,22.2146718 L242.339769,22.2146718 L242.339769,44.4293437 L242.339769,110.307336 L285.915058,110.307336 L285.915058,44.4293437 L308.084942,44.4293437 L308.084942,110.307336 L330.254825,110.307336 L330.254825,44.4293437 L352.424711,44.4293437 L352.424711,110.307336 L374.594594,110.307336 L374.594594,44.4293437 L374.594594,23.7467181 L374.594594,22.2146718 L285.915058,22.2146718 L285.915058,22.2146718 L285.915058,22.2146718 Z" id="Shape" fill="#FFFFFF"></path>
                </g>
            </g>
            <g id="jspm" transform="translate(1171.000000, 474.000000)">
                <g id="Group">
                    <path d="M33.0104262,75.3587572 L126.965279,32.6862114 L222.989574,75.3587572 L222.989574,179.295622 L126.965279,221.282043 L33.0104262,184.801221 L33.0104262,75.3587572" id="Shape" fill="#EEDB88"></path>
                    <path d="M126.616684,0.643069233 L0.734886863,57.8183046 L0.734886863,204.449848 L126.616684,253.325185 L255.265113,197.074005 L255.265113,57.8183046 L126.616684,0.643069233 L126.616684,0.643069233 L126.616684,0.643069233 Z M110.476147,204.449848 L38.543692,172.174309 L38.543692,102.084431 L110.476147,131.593337 L110.476147,204.449848 L110.476147,204.449848 L110.476147,204.449848 Z M54.2249672,69.8088916 L128,37.527819 L199.932455,69.8088916 L126.616684,102.084431 L54.2249672,69.8088916 L54.2249672,69.8088916 L54.2249672,69.8088916 Z M215.608197,171.250253 L145.523853,204.449848 L145.523853,131.593337 L215.608197,102.084431 L215.608197,171.250253 L215.608197,171.250253 L215.608197,171.250253 Z" id="Shape" fill="#959595"></path>
                </g>
            </g>
            <g id="karma" transform="translate(0.000000, 530.000000)">
                <g id="Group">
                    <path d="M154.565149,138.601931 L193.810636,197.149425 L255.853854,197.149425 L185.543111,93.2663908 L154.565149,138.601931" id="Shape" fill="#429F87"></path>
                    <path d="M29.4919847,169.993808 L58.2277395,142.923525 L104.170421,197.149425 L74.6784368,88.3749272 L49.7777778,129.336889 L29.4919847,169.993808" id="Shape" fill="#429F87"></path>
                    <path d="M29.4919847,169.993808 L74.6784368,88.3749272 L45.9495479,115.457962 L0,61.2300996 L29.4919847,169.993808" id="Shape" fill="#56C5A8"></path>
                    <path d="M249.938391,0.603218391 L187.895172,0.603218391 L149.896337,56.7466667 L149.896337,0.603218391 L92.9848889,0.603218391 L92.9848889,58.8319387 L123.329226,170.665686 L130.400123,197.149425 L149.896337,197.149425 L149.896337,148.011157 L249.938391,0.603218391" id="Shape" fill="#56C5A8"></path>
                </g>
            </g>
            <g id="gulp" transform="translate(442.000000, 441.000000)">
                <g id="Group">
                    <path d="M131.776875,365.509493 L135.401941,305.276083 L145.411453,288.237814 C145.411453,288.237814 122.629711,297.530931 84.4893633,297.530931 C46.3483477,297.530931 23.9119453,288.409663 23.9119453,288.409663 L35.1298125,306.995896 L39.0982148,365.509493 C39.0982148,371.782613 59.8446563,376.867451 85.4378789,376.867451 C111.029766,376.867451 131.776875,371.782613 131.776875,365.509493" id="Shape" fill="#D34A47"></path>
                    <path d="M120.341918,84.2281943 L127.95075,54.2380442 L170.086887,10.0264682 L158.981238,0.594141343 L114.371613,47.6905 L105.537059,83.5208198 C99.1359141,83.3050106 92.4555586,83.1897792 85.5828281,83.1897792 C38.6005781,83.1897792 0.513667969,88.5290583 0.513667969,95.1139028 C0.513667969,101.699413 38.6005781,107.038027 85.5828281,107.038027 C132.56441,107.038027 170.650652,101.699413 170.650652,95.1139028 C170.650652,90.2648569 149.994387,86.0912138 120.341918,84.2281943" id="Shape" fill="#D34A47"></path>
                    <path d="M115.915957,101.023345 C115.915957,101.023345 114.268078,101.391686 109.420629,101.412334 C104.571844,101.432316 101.129133,101.381028 99.757793,100.135463 C99.3890742,99.8010919 99.1873477,99.1370124 99.1893516,98.6874099 C99.1933594,97.8315 99.8025469,97.3272792 100.578727,97.0115583 L101.312824,98.1598763 C100.993535,98.2697792 100.81118,98.3996643 100.810512,98.5382085 C100.80784,99.1883004 105.768176,99.6332403 109.562238,99.5852827 C113.356969,99.5386572 117.941906,99.2269329 117.945914,98.5861661 C117.945914,98.3923375 117.599238,98.2098322 116.996063,98.0659594 L117.72682,96.9256343 C118.71007,97.2300318 119.56841,97.8181784 119.566406,98.8359452 C119.557055,100.566415 117.34875,100.829516 115.915957,101.023345" id="Shape" fill="#FFFFFF"></path>
                    <path d="M170.004059,10.1137244 C171.063457,8.89346996 169.455656,5.77222968 166.413059,3.14322085 C163.369125,0.51554417 160.042641,-0.626113074 158.981238,0.594141343 C157.921172,1.81439576 159.529641,4.93563604 162.573574,7.56331272 C165.616172,10.1916555 168.943992,11.3346449 170.004059,10.1137244" id="Shape" fill="#D34A47"></path>
                    <path d="M129.750258,218.383578 C128.751645,208.802716 150.765891,194.926984 145.116211,194.48271 C132.953836,195.176097 126.900703,208.695477 120.781441,222.854958 C118.53907,228.044369 110.866113,250.172804 105.833637,247.448546 C100.802496,244.72562 112.356352,226.529042 115.594664,215.722597 C111.858047,218.454848 98.154668,229.071461 94.6231172,219.128919 C88.9453828,223.937334 76.8130664,226.542364 78.1817344,213.911532 C75.1611797,219.246814 68.3819648,226.695562 60.2447695,223.600299 C49.5586055,219.536558 66.4368398,185.592571 70.6336875,187.305057 C74.8312031,189.016876 69.7867031,196.749373 68.4654609,199.752051 C65.5597969,206.360208 62.2032539,214.66753 64.445625,216.368027 C68.2871133,219.281451 78.7408242,205.346438 78.9732773,205.040042 C80.9284219,202.46432 86.4986133,185.613219 90.9880313,187.548175 C95.4774492,189.483131 79.7902031,211.732125 85.6556367,216.147555 C86.8386094,217.038767 91.6787109,215.598041 94.6231172,212.421516 C96.5281641,210.366666 95.8728867,205.815357 102.223266,190.714042 C108.573645,175.613394 114.233344,156.807355 118.5885,158.240088 C122.943656,159.672155 119.353992,169.324288 117.791613,172.92244 C110.459988,189.810175 97.7819414,217.710173 103.76093,215.598041 C109.739918,213.486574 112.85332,213.362684 118.708066,206.530724 C124.562813,199.698765 124.292953,188.445382 128.195227,188.684504 C132.098836,188.924292 131.443559,192.532435 130.497047,195.280005 C134.337867,190.897214 148.703203,181.666708 152.171297,190.808625 C156.279305,201.631723 131.618566,217.265233 137.767219,216.467938 C143.762238,215.690625 153.474504,209.556716 157.621254,203.979647 L169.035504,101.652788 C169.035504,101.652788 157.549781,111.131074 84.4780078,111.131074 C11.4055664,111.131074 1.10816016,101.849947 1.10816016,101.849947 L10.8257695,195.250032 C15.9838242,180.631624 28.2323672,151.063101 47.5393359,152.055557 C56.3217891,152.507157 68.0459766,169.370247 58.0030664,169.941742 C53.7521133,170.182862 53.3206055,161.524518 48.286793,160.252975 C44.6543789,159.33512 39.5971875,162.27985 36.3288164,165.470362 C29.8107773,171.831405 15.7921172,196.928548 17.6443945,209.440818 C20.0043281,225.392714 39.7194258,203.897719 43.0552617,197.516028 C45.4045078,193.02067 46.9916016,179.701779 52.1296172,181.09921 C57.2683008,182.496641 51.6814102,196.241822 47.9568164,208.39441 C43.7726602,222.040345 41.5730391,236.434951 36.3288164,234.779081 C31.0839258,233.124544 39.6272461,215.50812 39.3179766,212.421516 C34.3883672,216.956839 25.3066641,228.438687 13.6880156,222.755712 L19.7231133,280.756429 C19.7231133,280.756429 35.7630469,293.393922 84.0819023,293.393922 C132.400758,293.393922 149.034516,280.953588 149.034516,280.953588 L156.528457,213.774986 C150.397172,219.728389 130.99268,230.300375 129.750258,218.383578" id="Shape" fill="#D34A47"></path>
                </g>
            </g>
        </g>
    </g>
</svg>